<?xml version="1.0" encoding="utf-8"?>
<!-- Generator: Adobe Illustrator 23.0.1, SVG Export Plug-In . SVG Version: 6.00 Build 0)  -->
<svg version="1.1" id="_x2014_ÎÓÈ_x5F_1" xmlns="http://www.w3.org/2000/svg" xmlns:xlink="http://www.w3.org/1999/xlink"
	 x="0px" y="0px" viewBox="0 0 434.8 362.7" style="enable-background:new 0 0 434.8 362.7;" xml:space="preserve">
<style type="text/css">
	.st0{fill:#40ACC3;}
	.st1{fill:#00A5C2;}
	.st2{fill:#EF6956;}
	.st3{fill:#FEDF05;}
	.st4{fill:#66BDCF;}
	.st5{fill:#2F2BAD;}
</style>
<path class="st0" d="M287.8,242.9c1.4-8.2,2.2-16.6,2.2-25.2v-9.1c-2.6-49.8-30.2-93-70.4-117.4c-19,10.4-35.3,25.1-47.8,42.6
	c0,0-0.1,0.1-0.1,0.1c-0.6,0.9-1.2,1.7-1.8,2.6c-0.1,0.2-0.3,0.4-0.4,0.6c-1.7,2.5-3.3,5.1-4.8,7.7c-0.2,0.4-0.4,0.7-0.6,1.1
	c-0.5,0.8-0.9,1.6-1.3,2.4c-0.1,0.2-0.2,0.4-0.3,0.6c-10.9,20.2-17,43.3-17,67.8c0,53.8,29.7,100.7,73.5,125.2
	C254.3,320.9,280.1,285.1,287.8,242.9z"/>
<path class="st1" d="M145.2,217.4L145.2,217.4c0,0.1,0,0.2,0,0.3c0,54-29.7,101-73.4,126c-21.2,12.1-45.7,19-71.8,19h143.9
	c27.3,0,52.9-7.5,74.8-20.6C175,317.7,145.4,271,145.2,217.4z"/>
<g>
	<path class="st2" d="M434.8,0c0,38.6-30.2,70.2-68.3,72.4c25.1,1.5,46.7,15.9,58.5,36.5c6.2-10.7,9.8-23.1,9.8-36.4V0z"/>
	<path class="st3" d="M404,131.8c2.7-1.9,5.2-3.9,7.6-6.1c5.3-4.9,9.8-10.5,13.5-16.8c-11.7-20.7-33.4-35-58.5-36.5
		c-1.4,0.1-2.8,0.1-4.2,0.1c-11.2,0-21.8,2.5-31.2,7C360.7,88.8,386.1,107.4,404,131.8z"/>
	<path class="st4" d="M290,72.7c-25.7,0-49.7,6.7-70.7,18.4c0.1,0,0.2,0.1,0.2,0.1c40.2,24.4,67.8,67.6,70.4,117.4v-63.4
		c0-28.8,16.7-53.6,41-65.3c9.5-4.6,20.2-7.2,31.5-7.2H290z"/>
	<path class="st5" d="M289.8,144.8c0,0.1,0,0.2,0,0.3v53.8c0,3.3,0.2,6.5,0.6,9.7c1.2-9.9,4.5-19.2,9.3-27.5
		c12.6-21.5,35.9-36,62.6-36c15.5,0,29.9-4.9,41.7-13.2c-17.9-24.4-43.3-43-72.9-52.3C306.8,91.2,289.9,116,289.8,144.8z"/>
</g>
</svg>
