<?xml version="1.0" encoding="utf-8"?>
<!-- Generator: Adobe Illustrator 23.0.1, SVG Export Plug-In . SVG Version: 6.00 Build 0)  -->
<svg version="1.1" id="_x2014_ÎÓÈ_x5F_1" xmlns="http://www.w3.org/2000/svg" xmlns:xlink="http://www.w3.org/1999/xlink"
	 x="0px" y="0px" viewBox="0 0 579.6 652.5" style="enable-background:new 0 0 579.6 652.5;" xml:space="preserve">
<style type="text/css">
	.st0{fill:#1B73A7;}
	.st1{fill:#40ACC3;}
	.st2{fill:#00A5C2;}
	.st3{fill:#EF6956;}
	.st4{fill:none;stroke:#231F20;stroke-miterlimit:10;}
	.st5{fill:#FEDF05;}
	.st6{fill:#66BDCF;}
	.st7{fill:#2F2BAD;}
</style>
<path class="st0" d="M72.7,435.5C32.5,435.5,0,403,0,362.9v289.7c0-92.1,42.9-174.1,109.8-227.2C98.9,431.8,86.2,435.5,72.7,435.5z"
	/>
<path class="st1" d="M432.6,242.9c1.4-8.2,2.2-16.6,2.2-25.2v-9.1c-2.6-49.8-30.2-93-70.4-117.4c-19,10.4-35.3,25.1-47.8,42.6
	c0,0-0.1,0.1-0.1,0.1c-0.6,0.9-1.2,1.7-1.8,2.6c-0.1,0.2-0.3,0.4-0.4,0.6c-1.7,2.5-3.3,5.1-4.8,7.7c-0.2,0.4-0.4,0.7-0.6,1.1
	c-0.5,0.8-0.9,1.6-1.3,2.4c-0.1,0.2-0.2,0.4-0.3,0.6c-10.9,20.2-17,43.3-17,67.8c0,53.8,29.7,100.7,73.5,125.2
	C399.1,320.9,424.9,285.1,432.6,242.9z"/>
<path class="st2" d="M290,217.4L290,217.4c0,0.1,0,0.2,0,0.3c0,54-29.7,101-73.4,126c-21.2,12.1-45.7,19-71.8,19h143.9
	c27.3,0,52.9-7.5,74.8-20.6C319.8,317.7,290.2,271,290,217.4z"/>
<path class="st3" d="M50.8,359.3c-1-0.3-1.9-0.6-2.8-1C48.9,358.6,49.9,359,50.8,359.3z"/>
<path class="st4" d="M48,358.3c-0.1,0-0.1,0-0.2-0.1C47.9,358.3,48,358.3,48,358.3z"/>
<path class="st4" d="M50.8,359.3c7,2.2,14.5,3.4,22.2,3.4c1.5,0,3-0.1,4.6-0.2h-5.1C65,362.5,57.7,361.4,50.8,359.3z"/>
<g>
	<path class="st3" d="M579.6,0c0,38.6-30.2,70.2-68.3,72.4c25.1,1.5,46.7,15.9,58.5,36.5c6.2-10.7,9.8-23.1,9.8-36.4V0z"/>
	<path class="st5" d="M548.8,131.8c2.7-1.9,5.2-3.9,7.6-6.1c5.3-4.9,9.8-10.5,13.5-16.8c-11.7-20.7-33.4-35-58.5-36.5
		c-1.4,0.1-2.8,0.1-4.2,0.1c-11.2,0-21.8,2.5-31.2,7C505.5,88.8,530.9,107.4,548.8,131.8z"/>
	<path class="st6" d="M434.8,72.7c-25.7,0-49.7,6.7-70.7,18.4c0.1,0,0.2,0.1,0.2,0.1c40.2,24.4,67.8,67.6,70.4,117.4v-63.4
		c0-28.8,16.7-53.6,41-65.3c9.5-4.6,20.2-7.2,31.5-7.2H434.8z"/>
	<path class="st7" d="M434.6,144.8c0,0.1,0,0.2,0,0.3v53.8c0,3.3,0.2,6.5,0.6,9.7c1.2-9.9,4.5-19.2,9.3-27.5
		c12.6-21.5,35.9-36,62.6-36c15.5,0,29.9-4.9,41.7-13.2c-17.9-24.4-43.3-43-72.9-52.3C451.5,91.2,434.7,116,434.6,144.8z"/>
</g>
<path class="st7" d="M145.3,362.5H145H72.5c-26.8,0-50.1-14.5-62.7-36.1C3.6,315.7,0,303.3,0,290v72.5v0.3
	c0,40.1,32.5,72.7,72.7,72.7c13.6,0,26.2-3.7,37.1-10.2c4.1-3.2,8.3-6.4,12.5-9.4c47.3-33.6,105.2-53.4,167.7-53.4H145.3z"/>
<path class="st3" d="M0,289.6v0.4c0,13.2,3.5,25.5,9.7,36.2c8.5,14.7,22,26.2,38.2,32C19.9,348,0,321.1,0,289.6z"/>
<path class="st5" d="M77.6,362.5h67.3h0.1c0-12.9-3.4-24.9-9.2-35.4C123.7,347.2,102.3,361,77.6,362.5z"/>
<path class="st5" d="M0,217.5v72.1c0-13.1,3.5-25.5,9.6-36.1C3.5,242.9,0,230.6,0,217.5z"/>
<path class="st3" d="M135.8,327.1C123.3,305,99.7,290,72.5,290c-26.9,0-50.4-14.7-62.9-36.5c-6.1,10.7-9.6,23-9.6,36.1
	c0,31.5,19.9,58.3,47.9,68.6c0.1,0,0.1,0,0.2,0.1c0.9,0.3,1.9,0.7,2.8,1c6.8,2.1,14.1,3.3,21.7,3.3h5.1
	C102.3,361,123.7,347.2,135.8,327.1z"/>
</svg>
