<?xml version="1.0" encoding="utf-8"?>
<!-- Generator: Adobe Illustrator 23.0.1, SVG Export Plug-In . SVG Version: 6.00 Build 0)  -->
<svg version="1.1" id="_x2014_ÎÓÈ_x5F_1" xmlns="http://www.w3.org/2000/svg" xmlns:xlink="http://www.w3.org/1999/xlink"
	 x="0px" y="0px" viewBox="0 0 435 290" style="enable-background:new 0 0 435 290;" xml:space="preserve">
<style type="text/css">
	.st0{fill:#1B73A7;}
	.st1{fill:#EF6956;}
	.st2{fill:none;stroke:#231F20;stroke-miterlimit:10;}
	.st3{fill:#2F2BAD;}
	.st4{fill:#FEDF05;}
</style>
<path class="st0" d="M217,72.7C217,32.5,249.5,0,289.7,0H0c92.1,0,174.1,42.9,227.2,109.8C220.7,98.9,217,86.2,217,72.7z"/>
<path class="st1" d="M293.3,50.8c0.3-1,0.6-1.9,1-2.8C293.9,48.9,293.6,49.9,293.3,50.8z"/>
<path class="st2" d="M294.3,48c0-0.1,0-0.1,0.1-0.2C294.3,47.9,294.3,48,294.3,48z"/>
<path class="st2" d="M293.3,50.8c-2.2,7-3.4,14.5-3.4,22.2c0,1.5,0.1,3,0.2,4.6v-5.1C290,65,291.2,57.7,293.3,50.8z"/>
<path class="st3" d="M290,145.3V145V72.5c0-26.8,14.5-50.1,36.1-62.7C336.8,3.6,349.2,0,362.5,0H290h-0.3C249.5,0,217,32.5,217,72.7
	c0,13.6,3.7,26.2,10.2,37.1c3.2,4.1,6.4,8.3,9.4,12.5C270.2,169.7,290,227.5,290,290V145.3z"/>
<path class="st1" d="M362.9,0h-0.4c-13.2,0-25.5,3.5-36.2,9.7c-14.7,8.5-26.2,22-32,38.2C304.6,19.9,331.4,0,362.9,0z"/>
<path class="st4" d="M290,77.6v67.3v0.1c12.9,0,24.9-3.4,35.4-9.2C305.3,123.7,291.5,102.3,290,77.6z"/>
<path class="st4" d="M435,0h-72.1C376,0,388.4,3.5,399,9.6C409.6,3.5,421.9,0,435,0z"/>
<path class="st1" d="M325.4,135.8c22.1-12.4,37.1-36.1,37.1-63.3c0-26.9,14.7-50.4,36.5-62.9C388.4,3.5,376,0,362.9,0
	c-31.5,0-58.3,19.9-68.6,47.9c0,0.1,0,0.1-0.1,0.2c-0.3,0.9-0.7,1.9-1,2.8c-2.1,6.8-3.3,14.1-3.3,21.7v5.1
	C291.5,102.3,305.3,123.7,325.4,135.8z"/>
</svg>
